<svg id="Layer_1" data-name="Layer 1" xmlns="http://www.w3.org/2000/svg" xmlns:xlink="http://www.w3.org/1999/xlink" viewBox="0 0 84.94 61.79"><defs><style>.cls-1{fill:url(#radial-gradient);}.cls-2{fill:url(#linear-gradient);}.cls-3{fill:url(#linear-gradient-2);}.cls-4{fill:url(#linear-gradient-3);}</style><radialGradient id="radial-gradient" cx="10.16" cy="48.01" r="42.63" gradientUnits="userSpaceOnUse"><stop offset="0.17" stop-color="#1e75b8"/><stop offset="0.36" stop-color="#2179b7"/><stop offset="0.55" stop-color="#2a85b5"/><stop offset="0.74" stop-color="#3999b2"/><stop offset="0.93" stop-color="#4eb5ae"/><stop offset="1" stop-color="#57c1ac"/></radialGradient><linearGradient id="linear-gradient" x1="16.63" y1="44.04" x2="70.58" y2="44.04" gradientUnits="userSpaceOnUse"><stop offset="0" stop-color="#57c1ac"/><stop offset="0.07" stop-color="#4eb5ae"/><stop offset="0.26" stop-color="#3999b2"/><stop offset="0.45" stop-color="#2a85b5"/><stop offset="0.64" stop-color="#2179b7"/><stop offset="0.83" stop-color="#1e75b8"/></linearGradient><linearGradient id="linear-gradient-2" x1="169.32" y1="8.07" x2="207.81" y2="8.07" gradientTransform="translate(262.42 65.08) rotate(-174.6)" gradientUnits="userSpaceOnUse"><stop offset="0.01" stop-color="#a41d57"/><stop offset="0.16" stop-color="#a82354"/><stop offset="0.37" stop-color="#b4344c"/><stop offset="0.61" stop-color="#c7513e"/><stop offset="0.87" stop-color="#e2782b"/><stop offset="1" stop-color="#f28f20"/></linearGradient><linearGradient id="linear-gradient-3" x1="177.2" y1="-9.4" x2="231.05" y2="-9.4" gradientTransform="translate(262.42 65.08) rotate(-174.6)" gradientUnits="userSpaceOnUse"><stop offset="0" stop-color="#f28f20"/><stop offset="0.13" stop-color="#e2782b"/><stop offset="0.39" stop-color="#c7513e"/><stop offset="0.63" stop-color="#b4344c"/><stop offset="0.84" stop-color="#a82354"/><stop offset="0.99" stop-color="#a41d57"/></linearGradient></defs><path class="cls-1" d="M34.21,78.57a7.67,7.67,0,0,0,10.85,0h0a7.67,7.67,0,0,0,0-10.84L21.84,44.51a7.67,7.67,0,0,0-10.85,0h0a7.67,7.67,0,0,0,0,10.84L24.73,69.06Z" transform="translate(-8.68 -19.03)"/><path class="cls-2" d="M45.06,21.28a7.67,7.67,0,0,0-10.85,0L11,44.5A7.51,7.51,0,0,0,10.69,55l.11.13.16.15,0,0s0,0,0,0l13.7,13.68c-7.38-7.38,2.52-19.14,2.52-19.14h0l17.81-17.8A7.67,7.67,0,0,0,45.06,21.28Z" transform="translate(-8.68 -19.03)"/><path class="cls-3" d="M70.9,21.8a7.66,7.66,0,0,0-10.78-1h0a7.65,7.65,0,0,0-1,10.77L80,56.82a7.66,7.66,0,0,0,10.78,1h0a7.66,7.66,0,0,0,1-10.78L79.43,32.15Z" transform="translate(-8.68 -19.03)"/><path class="cls-4" d="M54.74,77.73a7.66,7.66,0,0,0,10.78,1l25.25-20.9a7.5,7.5,0,0,0,1.3-10.43L92,47.28l-.14-.17,0,0,0,0L79.43,32.15c6.64,8-4.31,18.78-4.31,18.78h0L55.76,67A7.66,7.66,0,0,0,54.74,77.73Z" transform="translate(-8.68 -19.03)"/></svg>