<svg id="Layer_1" data-name="Layer 1" xmlns="http://www.w3.org/2000/svg" xmlns:xlink="http://www.w3.org/1999/xlink" viewBox="0 0 732.43 176.84"><defs><style>.cls-1{fill:url(#radial-gradient);}.cls-2{fill:url(#linear-gradient);}.cls-3{fill:url(#linear-gradient-2);}.cls-4{fill:url(#linear-gradient-3);}.cls-5{fill:#212529;}.cls-6{fill:url(#linear-gradient-4);}</style><radialGradient id="radial-gradient" cx="66.6" cy="124.94" r="122" gradientUnits="userSpaceOnUse"><stop offset="0.17" stop-color="#1e75b8"/><stop offset="0.36" stop-color="#2179b7"/><stop offset="0.55" stop-color="#2a85b5"/><stop offset="0.74" stop-color="#3999b2"/><stop offset="0.93" stop-color="#4eb5ae"/><stop offset="1" stop-color="#57c1ac"/></radialGradient><linearGradient id="linear-gradient" x1="85.12" y1="113.58" x2="239.52" y2="113.58" gradientUnits="userSpaceOnUse"><stop offset="0" stop-color="#57c1ac"/><stop offset="0.07" stop-color="#4eb5ae"/><stop offset="0.26" stop-color="#3999b2"/><stop offset="0.45" stop-color="#2a85b5"/><stop offset="0.64" stop-color="#2179b7"/><stop offset="0.83" stop-color="#1e75b8"/></linearGradient><linearGradient id="linear-gradient-2" x1="210.73" y1="124.44" x2="321.08" y2="124.44" gradientTransform="translate(995.73 249.63) rotate(-174.6)" gradientUnits="userSpaceOnUse"><stop offset="0.01" stop-color="#a41d57"/><stop offset="0.16" stop-color="#a82354"/><stop offset="0.37" stop-color="#b4344c"/><stop offset="0.61" stop-color="#c7513e"/><stop offset="0.87" stop-color="#e2782b"/><stop offset="1" stop-color="#f28f20"/></linearGradient><linearGradient id="linear-gradient-3" x1="233.3" y1="74.36" x2="387.7" y2="74.36" gradientTransform="translate(995.73 249.63) rotate(-174.6)" gradientUnits="userSpaceOnUse"><stop offset="0" stop-color="#f28f20"/><stop offset="0.13" stop-color="#e2782b"/><stop offset="0.39" stop-color="#c7513e"/><stop offset="0.63" stop-color="#b4344c"/><stop offset="0.84" stop-color="#a82354"/><stop offset="0.99" stop-color="#a41d57"/></linearGradient><linearGradient id="linear-gradient-4" x1="464.22" y1="127.82" x2="534.76" y2="127.82" xlink:href="#linear-gradient"/></defs><path class="cls-1" d="M135.43,212.41a21.94,21.94,0,0,0,31,0h0a21.94,21.94,0,0,0,0-31L100,114.92a22,22,0,0,0-31,0h0a22,22,0,0,0,0,31l39.31,39.21Z" transform="translate(-62.36 -41.99)"/><path class="cls-2" d="M166.46,48.42a21.94,21.94,0,0,0-31,0L69,114.88c-8.39,8.39-8.92,21.52-.87,30.13l.34.36.44.44.09.1a1.14,1.14,0,0,1,.11.11l39.2,39.15c-21.1-21.11,7.24-54.76,7.24-54.76h0l51-50.95A22,22,0,0,0,166.46,48.42Z" transform="translate(-62.36 -41.99)"/><path class="cls-3" d="M729.65,50.54a21.94,21.94,0,0,0-30.9-2.92h0a22,22,0,0,0-2.92,30.9l59.92,72.41a21.94,21.94,0,0,0,30.9,2.92h0a22,22,0,0,0,2.92-30.9L754.11,80.21Z" transform="translate(-62.36 -41.99)"/><path class="cls-4" d="M683.33,210.88a21.94,21.94,0,0,0,30.9,2.92l72.41-59.91c9.15-7.57,10.91-20.59,3.71-29.91l-.31-.4-.39-.48-.09-.11-.1-.11L754.11,80.21c19,23-12.34,53.84-12.34,53.84h0L686.25,180A22,22,0,0,0,683.33,210.88Z" transform="translate(-62.36 -41.99)"/><path class="cls-5" d="M188.89,179l-1.34-1.95c0-.17.58-1.89,1.61-5.15q3.28-10.52,6.47-25.19t3.18-19.63a3.67,3.67,0,0,0-.6-2.18,1.76,1.76,0,0,0-1.41-.83,4.18,4.18,0,0,0-2,.83q-1.28.84-7.57,5.53l-.94-.07L184.94,128l.07-.94q4.81-4.08,11.29-9t9.51-6.16a13.73,13.73,0,0,1,5.06-1.27,3.21,3.21,0,0,1,2.71,1.27,4.83,4.83,0,0,1,1,3,37.84,37.84,0,0,1-.94,6.69q-.93,4.63-5.49,24.59,8.77-16.35,19.76-26t17.82-9.61a4.38,4.38,0,0,1,3.42,1.51,5.68,5.68,0,0,1,1.34,3.91,34.51,34.51,0,0,1-.61,5.5q-.6,3.55-2.27,10.25l-3.69,14.4q8.51-17,20.17-26.09T283.15,111a4,4,0,0,1,3.62,1.88,8.53,8.53,0,0,1,1.2,4.69q0,4.75-2.48,14.2-7.69,28.74-7.7,33.7c0,1.51.51,2.27,1.54,2.27q1.82,0,10.25-6.16l.8.07,1.48,2.61-.2.87q-11.19,8.18-16.48,11.19t-8.65,3a4.43,4.43,0,0,1-3.65-1.74,6.64,6.64,0,0,1-1.37-4.22,42,42,0,0,1,1.17-8.37q1.17-5.37,4.19-16.88,2.75-10.67,3.52-14.51a32.88,32.88,0,0,0,.77-5.86c0-2.1-.72-3.15-2.15-3.15q-1.61,0-4.75,1.94a39.57,39.57,0,0,0-7.84,7.21,60.87,60.87,0,0,0-8.34,12.12,78.12,78.12,0,0,0-6.33,17.42q-2.69,10.54-2.68,13.76a76.21,76.21,0,0,0-14.2,1.95l-1.61-1.95a198,198,0,0,0,7.8-26.76q4-17.11,4-23a3.15,3.15,0,0,0-.64-2.14,2,2,0,0,0-1.57-.74c-1.16,0-2.85.72-5.06,2.14s-4.91,4.25-8.1,8.45a87.61,87.61,0,0,0-8.24,13,66.68,66.68,0,0,0-5.56,15.74,88.83,88.83,0,0,0-2.32,12.69Q199.21,176.38,188.89,179Z" transform="translate(-62.36 -41.99)"/><path class="cls-5" d="M301.44,131l-1.34-2.35.13-.87a179.49,179.49,0,0,1,18.39-13q6.6-3.81,10.28-3.81a3.63,3.63,0,0,1,2.88,1.44A5.45,5.45,0,0,1,333,116a34.38,34.38,0,0,1-1,7.43q-1,4.5-4.39,17-5.82,21.57-5.83,25a2.54,2.54,0,0,0,.57,1.64,1.66,1.66,0,0,0,1.31.7q2,0,10.72-6.23l.8.07,1.47,2.68-.26.87q-4.69,3.35-11.19,7.67a57.87,57.87,0,0,1-9.28,5.39,13.88,13.88,0,0,1-4.85,1.07,4.33,4.33,0,0,1-3.89-1.94,9,9,0,0,1-1.27-5,36.13,36.13,0,0,1,.77-7q.76-3.93,3.31-13.57,5.63-21.51,5.63-25.32c0-1.25-.51-1.88-1.54-1.88q-2.55,0-11.66,6.43Zm21-40.6a10.35,10.35,0,0,1,2.61-7.1,8.57,8.57,0,0,1,6.7-3,7.23,7.23,0,0,1,5.49,2.11,7.6,7.6,0,0,1,2,5.46,12.25,12.25,0,0,1-2.41,7.4,7.85,7.85,0,0,1-6.76,3.32q-4.1,0-5.86-2.34A9.47,9.47,0,0,1,322.47,90.37Z" transform="translate(-62.36 -41.99)"/><path class="cls-5" d="M380.42,161.65l1.54,2.61-.27.87q-14.88,10.51-18.83,12.36a16.23,16.23,0,0,1-6.49,1.84,4.24,4.24,0,0,1-4.09-2.31,11.37,11.37,0,0,1-1.21-5.32q0-6.1,4-24.45l9.32-42.54c.53-2.32,1.08-5.13,1.64-8.41a54.48,54.48,0,0,0,.83-6.13,3.4,3.4,0,0,0-.83-2.38,4.47,4.47,0,0,0-3.15-1c-1.54,0-3.81-.09-6.8-.13l-.54-.61.4-2.88.67-.6a128.52,128.52,0,0,0,27.27-6.3l1.67,1.48q-5.69,23.72-11.18,50L368,158.1a33.28,33.28,0,0,0-.88,6.56c0,1.92.61,2.88,1.81,2.88q2.63,0,10.79-6Z" transform="translate(-62.36 -41.99)"/><path class="cls-5" d="M457.32,162.18l1.47,2.62-.26.87q-12.13,8.91-16.65,11.38c-3,1.66-5.53,2.48-7.54,2.48a3.88,3.88,0,0,1-3.38-1.81,7.82,7.82,0,0,1-1.24-4.55,45.59,45.59,0,0,1,1.07-8.17q1.08-5.37,4.62-19.5-11.25,19.31-20.23,26.7t-14.67,7.4a6.69,6.69,0,0,1-5.32-2.75q-2.25-2.74-2.25-9.91a68.29,68.29,0,0,1,1.88-14.67,111.76,111.76,0,0,1,5.29-17,23.32,23.32,0,0,1,4.12-6.93q2.37-2.65,10.28-8.41t11.22-7a21.88,21.88,0,0,1,7.47-1.2,32.53,32.53,0,0,1,7,.9,30.21,30.21,0,0,1,7.37,2.65l6.16-3.62,2.21,1.61q-1.67,3.95-4.08,14.6l-5,22.64q-2.61,12.06-2.61,14.74t1.74,2.61q2.14,0,10.52-5.76Zm-18.82-40a24.62,24.62,0,0,0-11-3,10.16,10.16,0,0,0-8.44,4.15q-3.21,4.15-7,18.49t-3.75,21.23q0,5,2.68,5t10.05-8.44A78.45,78.45,0,0,0,433,141,61.49,61.49,0,0,0,438.5,122.19Z" transform="translate(-62.36 -41.99)"/><path class="cls-6" d="M505.28,86.69l-.53-.61.4-2.88.67-.6a131,131,0,0,0,27.26-6.3l1.68,1.48-4.82,20.9q-2,9-7.64,37.24-4.15,20.7-4.82,25.86a32.49,32.49,0,0,0-.34,3.82q0,2.28,1.41,2.28,1.66,0,9.44-5.7l.81.07,1.4,2.61-.2.87q-12.45,9.45-16.31,11.43a15,15,0,0,1-6.46,2,4.16,4.16,0,0,1-3.65-1.94,7.8,7.8,0,0,1-1.31-4.49q0-3.75,2.54-13.73,1.28-5.16,3.35-14.2a91.88,91.88,0,0,1-18.22,24.58q-10.57,10-17.21,10a7,7,0,0,1-6.23-3.62q-2.28-3.61-2.28-9.84a75.14,75.14,0,0,1,2.14-17.35,73.18,73.18,0,0,1,5.06-15q2.91-6,5-7.9a84.41,84.41,0,0,1,9.18-6.57,60.37,60.37,0,0,1,10.62-5.93,21.78,21.78,0,0,1,7.57-1.3,38.05,38.05,0,0,1,9.18,1.4l2.14-14.13a68,68,0,0,0,.94-8.78,3.32,3.32,0,0,0-.91-2.61,4.74,4.74,0,0,0-3-.87C510.8,86.78,508.5,86.73,505.28,86.69Zm6,34.56a26.44,26.44,0,0,0-11.52-2.34q-5.16,0-7.6,1.77t-5.5,9.92a117,117,0,0,0-4.92,17.11,77.7,77.7,0,0,0-1.88,15.54c0,3.18.83,4.76,2.48,4.76s3.44-.89,5.76-2.68,5.22-5,8.68-9.54a74.29,74.29,0,0,0,8.61-14.54,67.32,67.32,0,0,0,4.69-14Z" transform="translate(-62.36 -41.99)"/><path class="cls-5" d="M586.68,161.18l1.54,2.74-.2.81Q576.23,173.1,569,176.22a33.38,33.38,0,0,1-12.83,3.11,20.85,20.85,0,0,1-9.18-2.07,12.56,12.56,0,0,1-6.13-6A19.17,19.17,0,0,1,539,163q0-7.25,2.78-18.56t7.07-16.81q4.27-5.49,13.9-11t16.51-5.49a14.6,14.6,0,0,1,9.51,3q3.69,3,3.69,8.54A20.28,20.28,0,0,1,588.35,135q-4.08,5.52-13.56,9.31a95,95,0,0,1-19.46,5.46,59.46,59.46,0,0,0-.74,9q0,6.55,3.11,8.94a11.14,11.14,0,0,0,6.94,2.38,22.78,22.78,0,0,0,6.29-1,29.52,29.52,0,0,0,5.93-2.34q2.39-1.32,9.08-5.6Zm-30.82-15.07q13.93-3.09,18.76-9.55t4.82-12.09a6.27,6.27,0,0,0-6.5-6.77q-5.49,0-9.51,5.8T555.86,146.11Z" transform="translate(-62.36 -41.99)"/><path class="cls-5" d="M599.47,130,605,112.48a55.62,55.62,0,0,1,7.57-1,58.88,58.88,0,0,1,6,.34c5.44.44,9.49.67,12.12.67q6,0,8.58-1.88l1.87,2.61a71,71,0,0,0-8,11.53,70.32,70.32,0,0,0-7,16.11,57,57,0,0,0-2.44,15.91q0,7,2.47,10.31a7.84,7.84,0,0,0,6.57,3.29q5.89,0,11.25-5.93t8.91-16.31q3.55-10.4,3.55-17.89,0-8-5.89-8a7.12,7.12,0,0,0-3.75,1.2l-.94-.26-.81-1.75.21-.87a38.58,38.58,0,0,0,4.82-4.42,26.52,26.52,0,0,0,3.68-4.49,10.91,10.91,0,0,1,3-.47q10.05,0,10,13.8,0,11.81-7.21,25.43T643.08,171.7q-9.32,7.63-18,7.63a15.52,15.52,0,0,1-11.86-5q-4.62-5-4.62-14.61a39.24,39.24,0,0,1,1.58-10.85,41.43,41.43,0,0,1,5.56-11.46q4-6,15.44-17.48c-1.88.4-3.43.7-4.66.9a64.23,64.23,0,0,1-8.2.31l-6-.14c-.45,0-1.92.11-4.42.34L603.49,130l-.74.53h-2.81Z" transform="translate(-62.36 -41.99)"/></svg>